<?xml version="1.0" encoding="UTF-8"?>
<svg id="Layer_1" data-name="Layer 1" xmlns="http://www.w3.org/2000/svg" viewBox="0 0 579.73 452.9">
  <defs>
    <style>
      .cls-1 {
        fill: #010101;
      }

      .cls-1, .cls-2 {
        stroke: #010101;
        stroke-linecap: round;
        stroke-linejoin: round;
        stroke-width: 44px;
      }

      .cls-2 {
        fill: none;
      }
    </style>
  </defs>
  <path class="cls-1" d="M150.63,59.76c.1,20.75-17.07,37.66-38.36,37.76-21.29,.1-38.63-16.64-38.73-37.4,0-.12,0-.24,0-.36-.1-20.75,17.07-37.66,38.36-37.76,21.29-.1,38.63,16.65,38.73,37.4,0,.12,0,.24,0,.36Z"/>
  <path class="cls-2" d="M250.78,318.84c.3,61.59-50.67,111.77-113.84,112.06-63.17,.29-114.63-49.4-114.94-110.99,0-.36,0-.71,0-1.07-.3-61.59,50.67-111.77,113.84-112.06,63.17-.3,114.63,49.4,114.94,110.99,0,.36,0,.71,0,1.07Z"/>
  <path class="cls-2" d="M557.73,318.84c.3,61.59-50.67,111.77-113.84,112.06-63.17,.29-114.63-49.4-114.94-110.99,0-.36,0-.71,0-1.07-.3-61.59,50.67-111.77,113.84-112.06,63.17-.3,114.63,49.4,114.94,110.99,0,.36,0,.71,0,1.07Z"/>
  <path class="cls-2" d="M126.94,277.7l69.15-60.66-1.21-129.81,257.19,3.64-105.54,138.3,63.08,133.44"/>
  <path class="cls-2" d="M205.77,112.75l207.45,2.43-81.28,1.21-58.23,64.3,16.98,105.54"/>
</svg>